<?xml version="1.0" encoding="UTF-8"?>
<svg id="a" xmlns="http://www.w3.org/2000/svg" width="91.198mm" height="91.198mm" xmlns:xlink="http://www.w3.org/1999/xlink" viewBox="0 0 258.514 258.514">
  <defs>
    <style>
      .c {
        fill: #fff;
      }

      .d {
        fill: url(#b);
      }
    </style>
    <linearGradient id="b" data-name="Degradado sin nombre" x1="42.293" y1="37.952" x2="219.809" y2="225.883" gradientTransform="translate(0 259.276) scale(1 -1)" gradientUnits="userSpaceOnUse">
      <stop offset="0" stop-color="#15b7d6"/>
      <stop offset="1" stop-color="#48b8b1"/>
    </linearGradient>
  </defs>
  <circle class="d" cx="129.257" cy="129.257" r="129.257"/>
  <g>
    <path class="c" d="M178.051,122.688h-3.613c-.624-.026-1.197.316-1.454.891-.097.219-.139.454-.127.686v44.104h-71.048v-99.959h28.64c.828,0,1.5-.671,1.5-1.5v-3.697c0-.829-.672-1.5-1.5-1.5h-49.159c-8.093,0-14.676,6.584-14.676,14.677v106.656c0,8.093,6.583,14.677,14.676,14.677h30.858c1.846,0,3.348-1.502,3.348-3.349s-1.502-3.35-3.348-3.35h-30.4c-4.653,0-8.438-3.577-8.438-7.966.022-4.407,3.602-7.992,7.98-7.992h91.564v4.633h-73.995c-1.847,0-3.349,1.502-3.349,3.349s1.502,3.349,3.349,3.349h24.333v14.892c0,2.144,1.103,4.074,2.95,5.165,1.848,1.09,4.072,1.122,5.947.083l5.494-3.035,6.281,3.25c.854.442,1.809.676,2.759.676,1.094,0,2.171-.304,3.115-.879,1.804-1.099,2.88-3.014,2.88-5.123v-15.027h20.236v.111c0,2.492-2.028,4.52-4.521,4.52h-4.668c-1.847,0-3.349,1.502-3.349,3.349s1.502,3.349,3.349,3.349h4.668c6.185,0,11.217-5.031,11.217-11.216v-62.322c0-.829-.672-1.5-1.5-1.5ZM95.112,68.41v99.959h-13.822c-2.848,0-5.636.841-7.979,2.36v-94.34c0-4.4,3.58-7.98,7.98-7.98h13.821ZM145.923,186.394v13.879l-6.851-3.545c-.475-.244-1.006-.374-1.537-.374-.563,0-1.123.145-1.62.418l-6.023,3.327v-13.705h16.031Z"/>
    <path class="c" d="M175.445,59.959c-2.545,15.802-10.643,24.031-26.875,26.57,15.321,2.466,24.132,10.516,26.879,26.646h.001c2.541-16.15,11.256-24.084,26.567-26.593-16.117-2.621-24.006-10.966-26.572-26.623Z"/>
    <path class="c" d="M156.413,72.264h-.001c-3.987-5.477-3.758-10.355-.007-15.576-5.49,3.954-10.246,3.821-15.585-.015,3.884,5.376,3.923,10.159-.089,15.659,5.211-3.766,10.152-3.989,15.682-.068Z"/>
  </g>
</svg>