<?xml version="1.0" encoding="UTF-8"?>
<svg id="a" data-name="Capa 1" xmlns="http://www.w3.org/2000/svg" width="91.198mm" height="91.198mm" xmlns:xlink="http://www.w3.org/1999/xlink" viewBox="0 0 258.514 258.514">
  <defs>
    <style>
      .c {
        fill: #fff;
      }

      .d {
        fill: url(#b);
      }
    </style>
    <linearGradient id="b" data-name="Degradado sin nombre 11" x1="42.293" y1="221.323" x2="219.809" y2="33.392" gradientUnits="userSpaceOnUse">
      <stop offset="0" stop-color="#15b7d6"/>
      <stop offset="1" stop-color="#48b8b1"/>
    </linearGradient>
  </defs>
  <circle class="d" cx="129.257" cy="129.257" r="129.257"/>
  <g>
    <path class="c" d="M174.356,124.184v45.685h-74.048v-102.959h30.14v-3.697h-49.159c-7.306,0-13.176,5.964-13.176,13.177v106.656c0,7.068,5.67,13.177,13.176,13.177h37.859c1.021,0,1.848-.828,1.848-1.849s-.827-1.849-1.848-1.849h-37.401c-5.313,0-9.938-4.044-9.938-9.474.027-5.433,4.435-9.484,9.48-9.484h93.065v7.632h-75.495c-1.021,0-1.849.828-1.849,1.849s.828,1.849,1.849,1.849h25.833v16.391c0,1.608.827,3.056,2.212,3.873,1.385.818,3.053.841,4.459.063l6.197-3.424,6.994,3.619c.655.339,1.363.508,2.069.508.807,0,1.613-.221,2.335-.66,1.352-.823,2.16-2.26,2.16-3.842v-16.527h23.236v1.611c0,3.319-2.701,6.019-6.02,6.019h-11.668c-1.021,0-1.849.828-1.849,1.849s.828,1.849,1.849,1.849h11.668c5.358,0,9.717-4.359,9.717-9.716v-62.322h-3.697ZM96.612,169.869h-15.322c-3.512,0-6.902,1.428-9.298,3.86-.061.06-.121.12-.181.182v-97.521c0-5.182,4.226-9.48,9.48-9.48h15.321v102.959ZM147.039,202.107c-.145.087-.436.206-.783.027l-7.872-4.073c-.267-.138-.558-.207-.849-.207-.308,0-.616.077-.894.23l-7.062,3.902c-.35.191-.646.074-.793-.011-.147-.087-.394-.292-.394-.689v-16.392h19.031v16.528h0c0,.391-.24.597-.384.684Z"/>
    <g>
      <path class="c" d="M175.45,113.175c2.541-16.15,11.256-24.084,26.567-26.593-16.117-2.621-24.006-10.966-26.572-26.623-2.545,15.802-10.643,24.031-26.875,26.57,15.321,2.466,24.132,10.516,26.879,26.646Z"/>
      <path class="c" d="M156.412,72.263c-3.987-5.476-3.758-10.354-.007-15.575-5.49,3.954-10.246,3.821-15.585-.015,3.884,5.376,3.923,10.159-.089,15.659,5.211-3.766,10.152-3.989,15.682-.068Z"/>
    </g>
  </g>
</svg>