<?xml version="1.0" encoding="UTF-8"?>
<!-- Generated by Pixelmator Pro 3.6.1 -->
<svg width="41" height="42" viewBox="0 0 41 42" xmlns="http://www.w3.org/2000/svg">
    <g id="Agrupar-copia">
        <path id="path6" fill="#000000" stroke="none" d="M 35.272575 1.861328 C 31.165932 -0.302246 27.124893 0.61377 23.32444 2.925293 C 22.345329 3.520508 21.450661 4.254395 20.47715 4.953125 C 20.047359 4.596191 19.70607 4.286621 19.338844 4.012695 C 16.525631 1.915039 13.475906 0.57666 9.852962 0.732422 C 4.673111 0.95459 0.027828 5.551758 0.003922 10.716797 C -0.040329 20.442871 -0.028122 30.168945 -0.02507 39.89502 C -0.02507 40.48877 -0.028629 41.779297 -0.028629 41.779297 L 6.968544 41.779297 C 6.968544 41.779297 6.984818 40.061035 6.985329 39.303223 C 6.987869 34.012695 6.970577 28.72168 6.973122 23.430664 C 6.975155 19.618164 6.9543 15.804688 7.029068 11.993652 C 7.068741 9.976563 8.416603 8.374023 10.245113 7.894043 C 11.921036 7.454102 13.26432 7.662109 14.41534 8.419434 C 15.566872 9.176758 15.498714 11.341309 14.460098 12.299805 C 12.75264 13.914551 11.685036 16.199707 11.685036 18.730469 C 11.685036 21.727539 13.18243 24.379395 15.466671 25.98291 C 13.18243 27.586426 11.685036 30.238281 11.685036 33.235352 C 11.685036 38.119141 15.658424 42.092773 20.542763 42.092773 C 25.42659 42.092773 29.399979 38.119141 29.399979 33.235352 C 29.399979 30.238281 27.90258 27.586426 25.61834 25.98291 C 27.90258 24.379395 29.399979 21.727539 29.399979 18.730469 C 29.399979 16.199219 28.332375 13.913086 26.62339 12.297852 C 25.659538 11.466309 25.526283 9.560059 26.88279 8.594727 C 28.239296 7.629395 29.53019 7.44043 31.065727 7.950195 C 32.977654 8.584961 34.069679 10.282715 34.110367 12.689453 C 34.116982 13.078613 34.106804 13.467773 34.1063 13.856934 C 34.101723 22.415527 34.093582 30.974609 34.100197 39.533203 C 34.1007 40.275879 34.093071 41.878906 34.093071 41.878906 L 41.101433 41.871582 C 41.101433 41.871582 41.114151 40.318848 41.114151 39.708984 C 41.112114 30.138184 41.099907 20.567871 41.0933 10.997559 C 41.090248 6.716797 38.846184 3.744141 35.272575 1.861328 M 20.542763 37.117676 C 18.401955 37.117676 16.660416 35.375977 16.660416 33.235352 C 16.660416 31.094238 18.401955 29.352539 20.542763 29.352539 C 22.683571 29.352539 24.425102 31.094238 24.425102 33.235352 C 24.425102 35.375977 22.683571 37.117676 20.542763 37.117676 M 24.425102 18.730469 C 24.425102 20.871582 22.683571 22.612793 20.542763 22.612793 C 18.401955 22.612793 16.660416 20.871582 16.660416 18.730469 C 16.660416 16.589844 18.401955 14.848145 20.542763 14.848145 C 22.683571 14.848145 24.425102 16.589844 24.425102 18.730469"/>
    </g>
</svg>
