<?xml version="1.0" encoding="UTF-8"?>
<!-- Generated by Pixelmator Pro 3.6.1 -->
<svg width="141" height="111" viewBox="0 0 141 111" xmlns="http://www.w3.org/2000/svg">
    <g id="Agrupar-copia-2">
        <path id="Trazado" fill="#ffffff" stroke="none" d="M 94.14296 24.508804 C 93.371368 24.176163 92.531128 24.007309 91.646622 24.007309 L 85.492249 24.007309 L 85.492249 45.239395 L 88.362427 45.239395 L 88.362427 38.289536 L 91.903992 38.289536 C 92.752884 38.289536 93.555496 38.122192 94.290466 37.793106 C 95.045258 37.454361 95.661713 36.907593 96.123047 36.166519 C 96.581818 35.42952 96.81427 34.458054 96.81427 33.279053 L 96.81427 28.988785 C 96.81427 27.825058 96.565033 26.862228 96.0737 26.127762 C 95.583389 25.394836 94.933868 24.850098 94.14296 24.508804 M 93.92984 28.988785 L 93.92984 33.279053 C 93.92984 34.748978 93.285919 35.433594 91.903992 35.433594 L 88.362427 35.433594 L 88.362427 26.863235 L 91.732574 26.863235 C 92.672516 26.863235 93.300674 27.147049 93.651123 27.728928 C 93.836258 28.042236 93.92984 28.466431 93.92984 28.988785"/>
        <path id="path1" fill="#ffffff" stroke="none" d="M 107.571198 24.610031 C 106.724335 24.143616 105.614517 23.907104 104.271744 23.907104 C 102.927948 23.907104 101.82016 24.143616 100.978394 24.610535 C 100.123383 25.084579 99.490143 25.745285 99.095963 26.573837 C 98.712463 27.382034 98.517654 28.314865 98.517654 29.346359 L 98.517654 40.014786 C 98.517654 41.046799 98.712463 41.981644 99.095963 42.79393 C 99.489639 43.628067 100.122879 44.291321 100.978394 44.764847 C 101.820679 45.231766 102.928467 45.468277 104.271744 45.468277 C 105.624695 45.468277 106.738068 45.229233 107.580353 44.757217 C 108.435364 44.27861 109.068085 43.615356 109.461258 42.787308 C 109.845276 41.978592 110.039566 41.045776 110.039566 40.014786 L 110.039566 29.346359 C 110.039566 28.315872 109.845276 27.382553 109.461258 26.573837 C 109.067581 25.745285 108.431793 25.084579 107.571198 24.610031 M 107.155655 29.346359 L 107.155655 40.014786 C 107.155655 40.874878 106.956268 41.543716 106.56311 42.003006 C 106.184174 42.445511 105.413605 42.669815 104.271744 42.669815 C 103.137512 42.669815 102.368469 42.447037 101.984955 42.007584 C 101.588745 41.553391 101.387833 40.88353 101.387833 40.014786 L 101.387833 29.346359 C 101.387833 28.487289 101.588745 27.818436 101.985977 27.359665 C 102.369476 26.916138 103.138519 26.69133 104.271744 26.69133 C 105.413605 26.69133 106.184174 26.916138 106.56311 27.358139 C 106.956268 27.817429 107.155655 28.486267 107.155655 29.346359"/>
        <path id="path2" fill="#ffffff" stroke="none" d="M 114.862869 38.289536 L 119.529007 38.289536 C 120.134781 38.297668 120.258377 38.567749 120.258377 38.971085 L 120.258377 45.239395 L 123.142792 45.239395 L 123.142792 38.91362 C 123.142792 38.003174 122.837616 37.224976 122.23439 36.59581 C 122.941895 35.768265 123.300476 34.654373 123.300476 33.279053 L 123.300476 28.988785 C 123.300476 27.825562 123.053787 26.863235 122.568054 26.128784 C 122.081802 25.39534 121.434326 24.850098 120.642899 24.508804 C 119.871307 24.176163 119.03157 24.007309 118.147064 24.007309 L 111.978455 24.007309 L 111.978455 45.239395 L 114.862869 45.239395 L 114.862869 38.289536 Z M 120.430298 28.988785 L 120.430298 33.279053 C 120.430298 34.065384 120.273636 34.628952 119.965408 34.952942 C 119.661255 35.271851 119.131256 35.433594 118.390198 35.433594 L 114.862869 35.433594 L 114.862869 26.863235 L 118.233032 26.863235 C 118.666885 26.863235 119.058533 26.9375 119.397278 27.083481 C 119.716187 27.221313 119.961334 27.436462 120.146988 27.740112 C 120.334671 28.04834 120.430298 28.46846 120.430298 28.988785"/>
        <path id="path3" fill="#ffffff" stroke="none" d="M 88.831375 47.940201 L 85.492249 47.940201 L 85.492249 69.172302 L 96.81427 69.172302 L 96.81427 66.31636 L 88.831375 66.31636 L 88.831375 47.940201 Z"/>
        <path id="path4" fill="#ffffff" stroke="none" d="M 98.510529 69.172302 L 110.03244 69.172302 L 110.03244 66.31636 L 101.894928 66.31636 L 101.894928 60.191483 L 110.03244 60.191483 L 110.03244 57.335556 L 101.894928 57.335556 L 101.894928 50.795639 L 110.03244 50.795639 L 110.03244 47.940201 L 98.510529 47.940201 L 98.510529 69.172302 Z"/>
        <path id="path5" fill="#ffffff" stroke="none" d="M 123.307083 52.921692 C 123.307083 51.75795 123.060913 50.796143 122.574661 50.061691 C 122.089432 49.328247 121.441956 48.783508 120.650024 48.441711 C 119.878433 48.10907 119.038696 47.940201 118.15419 47.940201 L 111.985565 47.940201 L 111.985565 69.172302 L 114.869995 69.172302 L 114.869995 62.221924 L 119.536133 62.221924 C 120.141388 62.230057 120.265503 62.500137 120.265503 62.903488 L 120.265503 69.172302 L 123.149918 69.172302 L 123.149918 62.846512 C 123.149918 61.935562 122.844742 61.157364 122.240997 60.528702 C 122.949005 59.701172 123.307083 58.58728 123.307083 57.21196 L 123.307083 52.921692 Z M 120.437408 52.921692 L 120.437408 57.21196 C 120.437408 57.998291 120.280762 58.56134 119.972534 58.885849 C 119.668365 59.204758 119.138885 59.366501 118.397308 59.366501 L 114.869995 59.366501 L 114.869995 50.796143 L 118.239639 50.796143 C 118.674011 50.796143 119.065643 50.869888 119.404388 51.016373 C 119.723297 51.154221 119.96846 51.368851 120.154114 51.673019 C 120.341797 51.980728 120.437408 52.400864 120.437408 52.921692"/>
        <path id="path6" fill="#ffffff" stroke="none" d="M 54.612015 23.790634 C 49.823807 21.267838 45.112404 22.335953 40.681755 25.030655 C 39.539894 25.72493 38.496696 26.580444 37.361954 27.395264 C 36.85994 26.979202 36.4627 26.618088 36.034439 26.29866 C 32.754311 23.853195 29.198502 22.292725 24.974358 22.474304 C 18.93544 22.7332 13.519081 28.093094 13.491104 34.115234 C 13.439224 45.455063 13.453972 56.794876 13.457024 68.135208 C 13.457535 68.827454 13.452957 70.33197 13.452957 70.33197 L 21.61132 70.33197 C 21.61132 70.33197 21.630653 68.328995 21.631157 67.445511 C 21.633705 61.276382 21.613869 55.107773 21.61692 48.938644 C 21.61895 44.493759 21.594536 40.047348 21.682022 35.603989 C 21.72831 33.252609 23.299965 31.383408 25.431618 30.823914 C 27.385757 30.311218 28.95182 30.553833 30.294083 31.436813 C 31.636345 32.319778 31.556496 34.843582 30.345963 35.961044 C 28.354691 37.84346 27.110588 40.508163 27.110588 43.458694 C 27.110588 46.952957 28.856194 50.044907 31.519363 51.914612 C 28.856194 53.784317 27.110588 56.876266 27.110588 60.37001 C 27.110588 66.06459 31.743156 70.697159 37.437737 70.697159 C 43.132317 70.697159 47.764893 66.06459 47.764893 60.37001 C 47.764893 56.876266 46.019279 53.784317 43.356117 51.914612 C 46.019279 50.044907 47.764893 46.952957 47.764893 43.458694 C 47.764893 40.507141 46.519768 37.841934 44.527481 35.958496 C 43.403923 34.989059 43.248795 32.766861 44.830116 31.641281 C 46.411942 30.515182 47.916962 30.294937 49.707336 30.889526 C 51.936127 31.630081 53.209732 33.609146 53.256531 36.415756 C 53.26416 36.868942 53.252457 37.322632 53.251953 37.776321 C 53.246857 47.755066 53.237198 57.734314 53.245331 67.713562 C 53.24585 68.579239 53.237198 70.447937 53.237198 70.447937 L 61.408279 70.439804 C 61.408279 70.439804 61.423035 68.629089 61.422516 67.91803 C 61.420486 56.759277 61.40625 45.601028 61.398621 34.442795 C 61.39505 29.451126 58.778687 25.985352 54.612015 23.790634 M 37.437737 64.89679 C 34.94191 64.89679 32.911476 62.866348 32.911476 60.37001 C 32.911476 57.874191 34.94191 55.84375 37.437737 55.84375 C 39.933571 55.84375 41.964516 57.874191 41.964516 60.37001 C 41.964516 62.866348 39.933571 64.89679 37.437737 64.89679 M 41.964516 43.458694 C 41.964516 45.955032 39.933571 47.985474 37.437737 47.985474 C 34.94191 47.985474 32.911476 45.955032 32.911476 43.458694 C 32.911476 40.962875 34.94191 38.932434 37.437737 38.932434 C 39.933571 38.932434 41.964516 40.962875 41.964516 43.458694"/>
        <path id="path7" fill="#ffffff" stroke="none" d="M 70.785828 10.307968 C 72.884918 7.212967 75.390411 4.810226 78.47879 3.033585 C 81.716705 1.171005 85.207916 0.128311 88.925476 0.112045 C 101.611115 0.057617 119.471024 0.062195 132.157181 0.097794 C 136.874695 0.111023 140.366913 3.737534 140.372513 8.569473 C 140.391327 25.646606 140.37709 42.72374 140.376587 59.801376 C 140.376587 67.266479 140.374039 74.731583 140.382172 82.196701 C 140.388794 88.136429 137.088318 91.467422 131.180618 91.467422 C 119.226379 91.466919 102.098389 91.451157 90.144653 91.472519 C 81.11145 91.488281 74.791763 97.538391 74.296356 106.584816 C 74.182434 108.673233 72.74353 110.17012 70.823975 110.198608 C 68.847443 110.2276 67.355652 108.700699 67.246292 106.535477 C 66.795654 97.619263 60.460709 91.511673 51.497696 91.4776 C 39.495132 91.432846 21.225273 91.468948 9.222206 91.466415 C 3.3908 91.46489 0.070999 88.125748 0.07151 82.295883 C 0.074562 57.802475 0.069984 33.308548 0.075577 8.81514 C 0.076088 4.776657 2.10601 1.718796 5.62011 0.574387 C 6.575821 0.263107 7.624611 0.105942 8.63118 0.103394 C 21.073196 0.072876 39.782509 0.00676 52.223511 0.115097 C 59.558411 0.179184 65.469666 3.312317 69.928787 9.150833 C 70.164276 9.459061 70.391129 9.774414 70.785828 10.307968 M 74.287201 90.335739 C 74.666641 90.060059 74.819229 89.962402 74.957062 89.847458 C 79.443146 86.085144 84.605713 84.369553 90.465088 84.406677 C 102.369995 84.482468 119.449158 84.431091 131.354568 84.427017 C 133.067627 84.426514 133.329559 84.176773 133.330078 82.493225 C 133.334137 57.999817 133.327026 33.506409 133.349396 9.013 C 133.350418 7.631577 132.841797 7.109207 131.451202 7.112778 C 119.204498 7.144302 101.783539 7.070053 89.537857 7.192123 C 87.452484 7.212967 85.21402 7.667679 83.324982 8.531326 C 77.52919 11.180771 74.391983 15.876404 74.334 22.265259 C 74.216003 35.340515 74.290253 48.417801 74.28772 61.493576 C 74.285675 71.006912 74.287201 80.520264 74.287201 90.335739 M 67.19899 90.301147 C 67.2229 89.804733 67.247314 89.530579 67.247314 89.25592 C 67.249847 67.105759 67.285965 44.955078 67.234085 22.804398 C 67.212723 13.619629 60.708923 7.177368 51.522614 7.141769 C 39.471733 7.094467 21.154068 7.12854 9.102676 7.132614 C 7.324013 7.133118 7.122086 7.346237 7.122086 9.197632 C 7.119545 33.495224 7.119545 57.792297 7.121574 82.08989 C 7.122086 84.295288 7.260941 84.428543 9.43074 84.429062 C 21.579277 84.430069 39.994606 84.415833 52.143143 84.436172 C 57.245682 84.444824 61.798401 86.093796 65.819595 89.225403 C 66.224457 89.54126 66.629837 89.857117 67.19899 90.301147"/>
    </g>
</svg>
