<?xml version="1.0" encoding="UTF-8"?>
<!-- Generated by Pixelmator Pro 3.6.1 -->
<svg width="79" height="42" viewBox="0 0 79 42" xmlns="http://www.w3.org/2000/svg">
    <g id="Agrupar-copia">
        <path id="Trazado" fill="#000000" stroke="none" d="M 52.01757 1.806152 C 51.324821 1.507324 50.570534 1.355957 49.776054 1.355957 L 44.248306 1.355957 L 44.248306 20.425781 L 46.826027 20.425781 L 46.826027 14.183105 L 50.007484 14.183105 C 50.769402 14.183105 51.490639 14.033203 52.150322 13.737305 C 52.828323 13.433594 53.382217 12.941895 53.796745 12.276367 C 54.208229 11.614746 54.417274 10.742188 54.417274 9.683105 L 54.417274 5.830078 C 54.417274 4.784668 54.193474 3.919922 53.751991 3.259766 C 53.312027 2.601563 52.728127 2.112793 52.01757 1.806152 M 51.826836 5.830078 L 51.826836 9.683105 C 51.826836 11.003418 51.248528 11.618652 50.007484 11.618652 L 46.826027 11.618652 L 46.826027 3.920898 L 49.852859 3.920898 C 50.697182 3.920898 51.261246 4.175781 51.576088 4.698242 C 51.742409 4.97998 51.826836 5.360352 51.826836 5.830078"/>
        <path id="path1" fill="#000000" stroke="none" d="M 64.078629 1.896973 C 63.31823 1.478027 62.321327 1.265625 61.115372 1.265625 C 59.908401 1.265625 58.913528 1.478516 58.157204 1.897461 C 57.389175 2.323242 56.820534 2.916504 56.467033 3.660645 C 56.122185 4.386719 55.94722 5.224609 55.94722 6.151367 L 55.94722 15.73291 C 55.94722 16.659668 56.122185 17.499512 56.46653 18.229004 C 56.820023 18.978516 57.389175 19.57373 58.157204 19.999512 C 58.913528 20.418457 59.908913 20.630859 61.115372 20.630859 C 62.330482 20.630859 63.330437 20.416016 64.087273 19.992188 C 64.85479 19.5625 65.422928 18.966797 65.776421 18.223145 C 66.121269 17.49707 66.295731 16.65918 66.295731 15.73291 L 66.295731 6.151367 C 66.295731 5.225098 66.121269 4.387695 65.776421 3.660645 C 65.422417 2.916504 64.851738 2.323242 64.078629 1.896973 M 63.705299 6.151367 L 63.705299 15.73291 C 63.705299 16.505371 63.52626 17.105957 63.173271 17.518555 C 62.833 17.916016 62.140762 18.117676 61.115372 18.117676 C 60.096596 18.117676 59.405876 17.91748 59.061539 17.522461 C 58.705498 17.115234 58.52494 16.513184 58.52494 15.73291 L 58.52494 6.151367 C 58.52494 5.379395 58.705498 4.778809 59.062553 4.366699 C 59.406898 3.968262 60.097099 3.766602 61.115372 3.766602 C 62.140762 3.766602 62.833 3.968262 63.173271 4.365723 C 63.52626 4.777832 63.705299 5.378906 63.705299 6.151367"/>
        <path id="path2" fill="#000000" stroke="none" d="M 70.627701 14.183105 L 74.818779 14.183105 C 75.362503 14.19043 75.473892 14.433105 75.473892 14.79541 L 75.473892 20.425781 L 78.064323 20.425781 L 78.064323 14.744141 C 78.064323 13.92627 77.790176 13.227051 77.248489 12.662109 C 77.88427 11.918945 78.205727 10.918457 78.205727 9.683105 L 78.205727 5.830078 C 78.205727 4.785156 77.984474 3.920898 77.548073 3.26123 C 77.111671 2.602539 76.530312 2.112793 75.819252 1.806152 C 75.126503 1.507324 74.372208 1.355957 73.577225 1.355957 L 68.03727 1.355957 L 68.03727 20.425781 L 70.627701 20.425781 L 70.627701 14.183105 Z M 75.628006 5.830078 L 75.628006 9.683105 C 75.628006 10.389648 75.487625 10.895508 75.210426 11.186523 C 74.937798 11.473145 74.461723 11.618652 73.795937 11.618652 L 70.627701 11.618652 L 70.627701 3.920898 L 73.654533 3.920898 C 74.044144 3.920898 74.396111 3.987305 74.700272 4.118652 C 74.986626 4.242676 75.206863 4.435547 75.373695 4.708496 C 75.542557 4.985352 75.628006 5.362305 75.628006 5.830078"/>
        <path id="path3" fill="#000000" stroke="none" d="M 47.247673 22.851074 L 44.248306 22.851074 L 44.248306 41.920898 L 54.417274 41.920898 L 54.417274 39.355957 L 47.247673 39.355957 L 47.247673 22.851074 Z"/>
        <path id="path4" fill="#000000" stroke="none" d="M 55.940605 41.920898 L 66.289627 41.920898 L 66.289627 39.355957 L 58.980156 39.355957 L 58.980156 33.85498 L 66.289627 33.85498 L 66.289627 31.290039 L 58.980156 31.290039 L 58.980156 25.416016 L 66.289627 25.416016 L 66.289627 22.851074 L 55.940605 22.851074 L 55.940605 41.920898 Z"/>
        <path id="path5" fill="#000000" stroke="none" d="M 78.212334 27.325195 C 78.212334 26.280273 77.990578 25.416016 77.554176 24.756836 C 77.118279 24.097656 76.536415 23.608398 75.825356 23.301758 C 75.132607 23.00293 74.378311 22.851074 73.583839 22.851074 L 68.043373 22.851074 L 68.043373 41.920898 L 70.633804 41.920898 L 70.633804 35.678711 L 74.825394 35.678711 C 75.368607 35.686035 75.479996 35.928711 75.479996 36.291016 L 75.479996 41.920898 L 78.070938 41.920898 L 78.070938 36.239258 C 78.070938 35.421387 77.796791 34.722656 77.254593 34.157715 C 77.890373 33.414063 78.212334 32.414063 78.212334 31.178711 L 78.212334 27.325195 Z M 75.634109 27.325195 L 75.634109 31.178711 C 75.634109 31.884766 75.493729 32.390625 75.21653 32.681641 C 74.943901 32.968262 74.468338 33.11377 73.80204 33.11377 L 70.633804 33.11377 L 70.633804 25.416016 L 73.660637 25.416016 C 74.050758 25.416016 74.402725 25.482422 74.706886 25.614258 C 74.99324 25.737793 75.213478 25.930664 75.380302 26.203613 C 75.54866 26.480469 75.634109 26.857422 75.634109 27.325195"/>
        <path id="path6" fill="#000000" stroke="none" d="M 35.272575 1.861328 C 31.165932 -0.302246 27.124893 0.61377 23.32444 2.925293 C 22.345329 3.520508 21.450661 4.254395 20.47715 4.953125 C 20.047359 4.596191 19.70607 4.286621 19.338844 4.012695 C 16.525631 1.915039 13.475906 0.57666 9.852962 0.732422 C 4.673111 0.95459 0.027828 5.551758 0.003922 10.716797 C -0.040329 20.442871 -0.028122 30.168945 -0.02507 39.89502 C -0.02507 40.48877 -0.028629 41.779297 -0.028629 41.779297 L 6.968544 41.779297 C 6.968544 41.779297 6.984818 40.061035 6.985329 39.303223 C 6.987869 34.012695 6.970577 28.72168 6.973122 23.430664 C 6.975155 19.618164 6.9543 15.804688 7.029068 11.993652 C 7.068741 9.976563 8.416603 8.374023 10.245113 7.894043 C 11.921036 7.454102 13.26432 7.662109 14.41534 8.419434 C 15.566872 9.176758 15.498714 11.341309 14.460098 12.299805 C 12.75264 13.914551 11.685036 16.199707 11.685036 18.730469 C 11.685036 21.727539 13.18243 24.379395 15.466671 25.98291 C 13.18243 27.586426 11.685036 30.238281 11.685036 33.235352 C 11.685036 38.119141 15.658424 42.092773 20.542763 42.092773 C 25.42659 42.092773 29.399979 38.119141 29.399979 33.235352 C 29.399979 30.238281 27.90258 27.586426 25.61834 25.98291 C 27.90258 24.379395 29.399979 21.727539 29.399979 18.730469 C 29.399979 16.199219 28.332375 13.913086 26.62339 12.297852 C 25.659538 11.466309 25.526283 9.560059 26.88279 8.594727 C 28.239296 7.629395 29.53019 7.44043 31.065727 7.950195 C 32.977654 8.584961 34.069679 10.282715 34.110367 12.689453 C 34.116982 13.078613 34.106804 13.467773 34.1063 13.856934 C 34.101723 22.415527 34.093582 30.974609 34.100197 39.533203 C 34.1007 40.275879 34.093071 41.878906 34.093071 41.878906 L 41.101433 41.871582 C 41.101433 41.871582 41.114151 40.318848 41.114151 39.708984 C 41.112114 30.138184 41.099907 20.567871 41.0933 10.997559 C 41.090248 6.716797 38.846184 3.744141 35.272575 1.861328 M 20.542763 37.117676 C 18.401955 37.117676 16.660416 35.375977 16.660416 33.235352 C 16.660416 31.094238 18.401955 29.352539 20.542763 29.352539 C 22.683571 29.352539 24.425102 31.094238 24.425102 33.235352 C 24.425102 35.375977 22.683571 37.117676 20.542763 37.117676 M 24.425102 18.730469 C 24.425102 20.871582 22.683571 22.612793 20.542763 22.612793 C 18.401955 22.612793 16.660416 20.871582 16.660416 18.730469 C 16.660416 16.589844 18.401955 14.848145 20.542763 14.848145 C 22.683571 14.848145 24.425102 16.589844 24.425102 18.730469"/>
    </g>
</svg>
