<?xml version="1.0" encoding="UTF-8"?>
<svg id="a" data-name="Capa 1" xmlns="http://www.w3.org/2000/svg" width="89.717mm" height="100mm" viewBox="0 0 254.315 283.465">
  <defs>
    <style>
      .b {
        fill: #1d1d1b;
      }
    </style>
  </defs>
  <path class="b" d="M201.78,128.22v86.766H61.146V19.442h57.243v-7.022H25.025C11.149,12.421,0,23.748,0,37.447v202.564c0,13.425,10.769,25.026,25.025,25.026h71.904c1.939,0,3.511-1.572,3.511-3.511s-1.571-3.511-3.511-3.511H25.896c-10.092,0-18.874-7.681-18.874-17.994.051-10.318,8.424-18.013,18.004-18.013h176.753v14.495H58.397c-1.939,0-3.511,1.572-3.511,3.511s1.572,3.511,3.511,3.511h49.064v31.13c0,3.054,1.57,5.804,4.202,7.357,2.631,1.553,5.798,1.598,8.468.119l11.77-6.502,13.283,6.872c1.244.643,2.588.964,3.929.964,1.533,0,3.064-.42,4.434-1.253,2.568-1.564,4.102-4.291,4.102-7.298v-31.389h44.13v3.06c0,6.303-5.129,11.431-11.433,11.431h-22.161c-1.939,0-3.511,1.572-3.511,3.511s1.572,3.511,3.511,3.511h22.161c10.176,0,18.454-8.278,18.454-18.453v-118.364h-7.022ZM54.124,214.986h-29.1c-6.67,0-13.108,2.713-17.659,7.331-.116.114-.23.229-.344.346V37.447c0-9.841,8.025-18.004,18.005-18.004h29.098v195.544ZM149.898,276.213c-.274.166-.829.391-1.488.051l-14.95-7.735c-.506-.262-1.06-.393-1.613-.393-.586,0-1.17.147-1.698.437l-13.412,7.411c-.665.362-1.227.141-1.506-.022-.279-.165-.748-.554-.748-1.308v-31.131h36.145v31.39h0c0,.743-.456,1.133-.729,1.299Z"/>
  <g>
    <path class="b" d="M203.857,107.31c4.827-30.672,21.379-45.742,50.458-50.506-30.609-4.978-45.593-20.827-50.466-50.564-4.834,30.012-20.213,45.641-51.042,50.463,29.097,4.683,45.833,19.973,51.05,50.606Z"/>
    <path class="b" d="M167.699,29.61c-7.572-10.401-7.138-19.666-.014-29.581-10.427,7.51-19.46,7.256-29.6-.029,7.377,10.209,7.45,19.295-.17,29.74,9.897-7.153,19.28-7.577,29.784-.13Z"/>
  </g>
</svg>